<svg width="104" height="64" viewBox="0 0 104 64" fill="none" xmlns="http://www.w3.org/2000/svg">
<path d="M48.2975 59.5556C49.7124 60.4299 51.0699 60.8669 52.3702 60.8669H52.4848C54.7795 60.8669 57.2976 59.3105 58.7508 57.4863C58.8656 57.296 58.2783 57.7696 58.2783 57.6174C58.2783 57.3515 58.5169 56.3475 58.2493 56.3475C58.2493 56.3475 57.3415 57.6555 56.2705 58.5295C55.1616 59.4038 54.0527 59.8408 52.9438 59.8408C51.0699 59.8408 49.0432 58.1877 46.8637 54.8812C47.5135 54.0828 48.1637 52.9808 48.8139 51.5747C49.464 50.1305 50.0949 48.363 50.7067 46.273C51.0127 45.2846 51.3569 44.0874 51.7391 42.6813C52.1216 41.2371 52.5424 39.5837 53.0011 37.7215C56.5575 23.4695 59.7697 15.9065 62.6376 15.0323C62.829 14.9943 63.0201 14.9753 63.2112 14.9753C63.4026 14.9373 63.5937 14.9183 63.7848 14.9183C65.3528 14.9183 66.3471 15.5454 66.7676 16.7996C66.8442 17.0276 66.959 17.1417 67.1118 17.1417C67.3412 17.1417 67.4561 17.0086 67.4561 16.7426C67.4561 16.5146 67.3795 16.3245 67.2267 16.1725C66.2706 14.9943 65.0658 14.4053 63.6127 14.4053C61.2801 14.4053 58.9857 16.2675 56.7296 19.992C54.5118 23.7166 52.5041 29.3605 50.7067 36.9234L48.699 45.3035C48.2785 47.128 47.8578 48.7433 47.4373 50.1494C47.0165 51.5555 46.596 52.7908 46.1753 53.8551C45.334 52.4487 44.4352 50.7574 43.4794 48.7811C42.5616 46.767 41.6055 44.4485 40.6111 41.8263L35.1622 27.8023C34.6648 26.5859 34.1105 25.4838 33.4987 24.4957C32.8868 23.5076 32.2556 22.6524 31.6058 21.9303C31.185 19.422 30.4203 17.5597 29.3111 16.3435C29.0434 16.0015 28.7375 15.8305 28.3936 15.8305C28.0877 15.8305 27.9345 15.9825 27.9345 16.2865C27.9345 16.4765 28.0494 16.7236 28.2788 17.0276C29.0434 18.0158 29.5981 19.1749 29.9423 20.5051C27.342 18.3768 24.3592 17.3127 20.9939 17.3127C17.7053 17.3127 15.2006 18.4148 13.4798 20.6192C11.8736 22.5574 11.0706 25.2558 11.0706 28.7144C11.0706 32.249 11.931 35.7073 13.6518 39.0897C14.6461 40.9142 15.7742 42.4343 17.0361 43.6505C18.298 44.8666 19.732 45.7787 21.3381 46.3867C21.4146 46.4248 21.5295 46.4437 21.6823 46.4437C22.0648 46.4437 22.2559 46.3108 22.2559 46.0449C22.2559 45.8549 22.0838 45.6838 21.7396 45.5316C21.0897 45.2276 20.4968 44.9425 19.9615 44.6766C19.4261 44.4107 18.9672 44.1445 18.5848 43.8785C16.6728 42.3962 15.1241 40.3251 13.9386 37.6647C12.9444 35.1563 12.4473 32.5908 12.4473 29.9686C12.4473 28.4103 12.6193 27.0039 12.9635 25.7499C13.3076 24.4957 13.7857 23.3555 14.3975 22.3294C15.8889 19.8971 18.1068 18.6809 21.0514 18.6809C24.6841 18.6809 27.8963 21.0182 30.688 25.6929V26.0349C30.688 29.1514 30.1906 32.6859 29.1966 36.6383C28.8906 37.5885 27.7242 41.199 27.3037 42.2252C26.8829 43.2135 26.4049 44.2585 25.8696 45.3606C25.2194 46.7288 24.4737 48.0782 23.6325 49.4084C22.8295 50.7004 21.9693 52.0117 21.0514 53.3418C18.4127 56.9524 16.2139 58.9476 14.4549 59.3279C14.0725 59.4038 13.7474 59.4797 13.4798 59.5556C13.2503 59.6319 13.0782 59.7078 12.9635 59.7837C8.22169 59.5938 4.76094 57.0664 2.58123 52.2017C3.88141 55.0141 6.59646 56.4202 10.7264 56.4202C13.6327 56.4202 15.0858 56.0784 15.0858 55.3941C15.0858 55.3182 15.0285 55.2611 14.9138 55.223C14.799 55.223 14.3401 55.3371 13.5371 55.5652C12.8105 55.7933 12.1796 55.9073 11.6442 55.9073C8.62321 55.9073 6.21406 54.9001 4.41678 52.8856C4.0726 52.4679 3.74758 52.0306 3.44164 51.5747C3.13571 51.1185 2.88716 50.6245 2.69594 50.0924C2.58123 49.7883 2.4474 49.3892 2.29443 48.8952C2.14146 48.4012 1.96938 47.7931 1.7782 47.071C1.73995 46.8048 1.58698 46.6718 1.31929 46.6718C0.439764 46.6718 0 47.2799 0 48.4963C0 48.9903 0.0765 49.5984 0.229468 50.3205C0.382406 51.0044 0.611841 51.7647 0.917778 52.6008C1.83556 55.033 3.55636 56.9905 6.08023 58.4725C8.48938 59.7648 11.0515 60.411 13.7665 60.411C20.1144 60.411 23.3732 56.3679 26.8147 50.5532C28.6504 47.5508 31.4255 41.6858 33.7198 33.1346C35.364 37.391 37.5904 41.9592 38.5462 44.3915C39.5022 46.7859 40.1334 48.306 40.4393 48.9522C42.9248 54.3109 45.5444 57.8455 48.2975 59.5556Z" fill="#7F0C08"/>
<path d="M99.4129 26.6022C99.0304 26.5644 98.8011 25.1772 98.7245 22.4407C98.8776 21.6806 99.1835 20.6925 99.6423 19.4763C100.101 18.2221 100.751 16.7589 101.592 15.0867C101.822 15.0107 101.994 14.9727 102.109 14.9727C102.797 14.9727 103.141 15.6758 103.141 17.082C102.759 17.6901 102.376 18.3171 101.994 18.9632C101.612 19.5713 101.249 20.1794 100.904 20.7875C99.8717 22.7638 99.3746 24.7021 99.4129 26.6022ZM83.2945 63.9997C77.4437 63.9997 72.9122 62.6125 69.7001 59.8382C67.0615 57.4819 65.7422 54.4794 65.7422 50.8308C65.7422 46.7263 67.444 43.3816 70.8472 40.7973C73.9066 38.441 77.4054 37.2438 81.3443 37.2059C84.6331 37.2059 87.2141 38.0421 89.088 39.7141C90.7322 41.2345 91.5544 43.0968 91.5544 45.3009C91.5544 47.5432 90.7515 49.4625 89.1452 51.0589C87.3099 52.8071 84.9773 53.6811 82.1473 53.6811C81.8031 53.6811 81.6313 53.6244 81.6313 53.5103C81.6313 53.2822 81.8031 53.1493 82.1473 53.1111C83.371 52.8452 84.4609 52.465 85.417 51.971C86.4111 51.477 87.2523 50.8308 87.9408 50.0327C89.2411 48.6264 89.8909 46.9922 89.8909 45.1299C89.8909 43.0776 89.1452 41.4053 87.6538 40.1133C86.1245 38.7072 84.0977 38.004 81.5737 38.004C78.1321 38.004 75.1111 39.1253 72.5108 41.3675C69.6811 43.7238 68.2662 46.7262 68.2662 50.3749C68.2662 53.9473 69.3558 56.8168 71.5357 58.9831C74.0594 61.6434 77.8452 62.9736 82.893 62.9736C87.8259 62.9736 91.9559 61.5105 95.2829 58.5839C98.9159 55.4674 100.732 51.534 100.732 46.7833C100.732 43.3246 99.3936 40.0373 96.7171 36.9208L90.4645 30.5359C89.3173 29.3576 88.4761 28.1986 87.9408 27.0584C87.4437 25.8801 87.1951 24.7591 87.1951 23.6949C87.1951 21.3386 88.1129 19.4573 89.9485 18.0511C91.7076 16.6449 93.7533 15.9418 96.0859 15.9418C97.0037 15.9418 97.9215 16.0748 98.8393 16.3408C99.7571 16.6069 100.216 16.9299 100.216 17.31C100.216 17.5 100.101 17.595 99.8717 17.595C99.7571 17.595 99.2981 17.424 98.4951 17.082C97.845 16.8159 97.1758 16.6829 96.4874 16.6829C94.7666 16.6829 93.2369 17.31 91.8987 18.5642C90.5984 19.8564 89.9485 21.3386 89.9485 23.0108C89.9485 24.911 90.847 26.8114 92.6444 28.7118L98.4951 34.1276C100.369 35.8377 101.746 37.7 102.625 39.7141C103.543 41.6904 104.002 43.7808 104.002 45.9852C104.002 51.0778 101.803 55.4104 97.4052 58.9831C93.2752 62.3274 88.5716 63.9997 83.2945 63.9997Z" fill="#7F0C08"/>
<path d="M70.5876 33.0077C69.8697 34.3598 58.1732 58.4001 57.1375 60.2909C59.6118 60.8066 72.146 37.562 72.9778 35.3832L85.4057 8.15218H85.8648C92.3274 8.15218 95.5586 6.23291 95.5586 2.39435C95.5586 0.798102 95.2144 0 94.5262 0C94.2969 0 94.182 0.0950143 94.182 0.285042L94.6408 0.969144C94.9467 1.38719 95.0998 1.86226 95.0998 2.39435C95.0998 3.38249 95.1764 3.70554 94.488 4.50364C93.6467 5.37776 91.4669 6.38492 88.79 6.38492H87.4707C87.012 6.38492 86.5339 6.36592 86.0369 6.3279L86.5529 5.24474C87.5856 3.04043 88.771 1.93828 90.1093 1.93828C90.7595 1.93828 91.333 2.24231 91.8301 2.85039C92.4037 3.42048 92.7289 3.70554 92.8055 3.70554C93.1494 3.70554 93.3215 3.49651 93.3215 3.07843C93.3215 2.54637 92.9583 2.10929 92.2319 1.76724C91.5434 1.42519 90.9316 1.25417 90.3962 1.25417C89.3636 1.25417 88.2164 1.61523 86.9547 2.33733C86.3811 2.71738 85.8648 3.11646 85.4057 3.5345C84.947 3.91455 84.5645 4.35163 84.2585 4.84569L83.5128 6.09986C81.9069 5.87186 80.0523 5.5298 77.949 5.07373L64.5267 1.93828C63.2647 1.63422 62.0792 1.44421 60.9703 1.36819C59.8994 1.25417 58.8861 1.19718 57.9303 1.19718C53.1884 1.19718 49.7276 2.8124 47.5477 6.04287C47.2421 6.46091 47.0124 6.89799 46.8596 7.35406C46.7448 7.81013 46.6875 8.24717 46.6875 8.66525C46.6875 10.1854 46.8228 11.3636 48.2759 11.8577C48.2759 11.8577 49.4599 11.9147 49.7276 11.9147C49.8424 11.9147 49.938 11.8957 50.0145 11.8577C50.0908 11.7817 50.1673 11.7437 50.2439 11.7437C51.2 11.7057 51.6777 11.6107 51.6777 11.4586C51.6777 11.4206 51.6205 11.4017 51.5056 11.4017C48.5994 11.4017 47.1463 10.3755 47.1463 8.3232C47.1463 7.14502 47.7391 6.08086 48.9246 5.13072C50.416 3.95258 52.6338 3.36349 55.5783 3.36349C56.7638 3.36349 58.0831 3.45851 59.5362 3.64852C61.0276 3.83856 62.6718 4.10459 64.4692 4.44665C67.2226 5.05473 69.6508 5.58679 71.754 6.04287C73.8573 6.49894 75.5781 6.87899 76.9164 7.18302C76.9547 7.48707 76.974 7.81013 76.974 8.15218V9.12132C76.974 10.5275 76.8974 11.9907 76.7443 13.5109C76.5915 15.0312 76.3428 16.5704 75.9986 18.1286C75.4633 20.1809 73.9336 25.9612 72.9778 28.0894C72.4042 29.4958 71.3526 31.6394 70.5876 33.0077Z" fill="#7F0C08"/>
</svg>
